<svg width="28" height="26" viewBox="0 0 28 26" fill="none" xmlns="http://www.w3.org/2000/svg">
<path d="M6.37334 8.98251C6.16847 8.78708 5.83543 8.78708 5.63061 8.98251C5.42521 9.17844 5.42521 9.49564 5.63061 9.69108C5.83548 9.88701 6.16852 9.88701 6.37334 9.69108C6.57868 9.49564 6.57868 9.17844 6.37334 8.98251Z" fill="#0A76DB"/>
<path d="M13.4882 22.6833C13.7198 22.3841 13.845 22.0235 13.845 21.6444C13.845 20.6774 13.0203 19.8906 12.0065 19.8906H3.07658C2.58526 19.8906 2.12357 20.073 1.7765 20.4042C1.42927 20.7353 1.23806 21.1758 1.23806 21.6444C1.23806 22.0328 1.37128 22.3918 1.59606 22.6827C0.759611 23.1023 0.1875 23.9391 0.1875 24.9015V25.4026C0.1875 25.6794 0.422732 25.9037 0.712806 25.9037H14.3702C14.6603 25.9037 14.8955 25.6794 14.8955 25.4026V24.9015C14.8955 23.9396 14.324 23.1031 13.4882 22.6833ZM2.51933 21.1128C2.66805 20.9709 2.86598 20.8927 3.07658 20.8927H12.0065C12.4409 20.8927 12.7944 21.2299 12.7944 21.6443C12.7944 21.8453 12.7124 22.0341 12.5637 22.176C12.4149 22.3179 12.217 22.396 12.0064 22.396H3.07658C2.6421 22.396 2.28867 22.0588 2.28867 21.6444C2.28867 21.4435 2.37057 21.2547 2.51933 21.1128ZM1.23806 24.9015C1.23806 24.0726 1.94502 23.3982 2.81392 23.3982H3.07658H12.0065H12.2691C13.138 23.3982 13.845 24.0726 13.845 24.9015H1.23806Z" fill="#0A76DB"/>
<path d="M26.5932 21.3221C26.4148 21.0584 26.2019 20.8252 25.9604 20.629L23.5059 18.5868C23.4868 18.5594 23.4646 18.5333 23.4393 18.5091C23.3966 18.4685 23.3483 18.4367 23.2969 18.413L21.8126 17.178L14.9421 11.4608C15.2233 11.1804 15.3782 10.8136 15.3782 10.4236C15.3782 10.0218 15.2142 9.64422 14.9162 9.35999C14.7863 9.23617 14.6386 9.13881 14.4807 9.0675L15.1163 8.46116C15.294 8.50621 15.4765 8.52926 15.6592 8.52926C16.1972 8.52921 16.7352 8.33388 17.1447 7.94322C17.5418 7.56453 17.7604 7.06117 17.7604 6.52584C17.7604 5.99051 17.5418 5.48715 17.1448 5.10846L12.6877 0.856777C12.2907 0.478092 11.763 0.269531 11.2016 0.269531C10.6406 0.269531 10.113 0.478092 9.71608 0.856777C9.16745 1.38013 8.98685 2.12322 9.17312 2.7918L2.83136 8.84135C2.65612 8.7969 2.47379 8.77345 2.28752 8.77345C1.72607 8.77345 1.19861 8.98186 0.80195 9.3602C-0.0173168 10.1417 -0.0173168 11.4134 0.80195 12.195L5.25901 16.4467C5.6687 16.8375 6.20677 17.0329 6.74484 17.0329C7.28296 17.0329 7.82104 16.8375 8.23072 16.4467C8.77935 15.9233 8.95995 15.1803 8.77368 14.5117L9.40798 13.9066C9.48421 14.0584 9.58764 14.1985 9.71613 14.321C10.0138 14.605 10.4095 14.7614 10.8306 14.7614C11.239 14.7614 11.6233 14.6139 11.9177 14.3459L19.2356 22.3663C19.2557 22.3964 19.2793 22.425 19.3068 22.4512C19.3162 22.4602 19.3262 22.4684 19.3361 22.4765L21.5167 24.8665C21.5709 24.9275 21.6289 24.9875 21.689 25.0449C22.2879 25.616 23.079 25.926 23.9095 25.926C24.0559 25.926 24.2036 25.9163 24.3516 25.8968C25.3407 25.7662 26.1956 25.2018 26.6968 24.348C27.2459 23.4123 27.205 22.2243 26.5932 21.3221ZM10.459 1.56544C10.6575 1.37607 10.9213 1.27174 11.2017 1.27174C11.4824 1.27174 11.7464 1.37607 11.9448 1.56544L16.402 5.81718C16.6005 6.00654 16.7098 6.25825 16.7098 6.52589C16.7098 6.79353 16.6005 7.04524 16.4019 7.2346C15.9924 7.62532 15.326 7.62532 14.9166 7.2346L10.4593 2.98267C10.4592 2.98257 10.4591 2.98252 10.459 2.98242C10.0494 2.59176 10.0494 1.9561 10.459 1.56544ZM7.48783 15.7381C7.0782 16.1288 6.41153 16.1289 6.0019 15.7381L1.54484 11.4863C1.13515 11.0955 1.13515 10.4597 1.54484 10.0689C1.74298 9.87979 2.00679 9.77566 2.28752 9.77566C2.56819 9.77566 2.83184 9.87974 3.02993 10.0687L7.48778 14.3211C7.89741 14.7118 7.89742 15.3475 7.48783 15.7381ZM9.69948 12.2113L8.23067 13.6125L3.77313 9.3603L9.71608 3.69103L14.1736 7.94322L12.7021 9.34697C12.6973 9.35128 12.6926 9.35549 12.6876 9.36025L9.7176 12.1934C9.71145 12.1992 9.70552 12.2052 9.69948 12.2113ZM11.5751 13.2566C11.5741 13.2576 11.5731 13.2586 11.572 13.2596L11.2021 13.6125C11.1029 13.7071 10.971 13.7592 10.8305 13.7592C10.6901 13.7592 10.5581 13.7071 10.459 13.6124C10.3596 13.5177 10.3049 13.3917 10.3049 13.2577C10.3049 13.1265 10.3574 13.0031 10.4527 12.91L13.4365 10.0636C13.641 9.87393 13.9716 9.87628 14.1737 10.0689C14.2729 10.1636 14.3276 10.2895 14.3276 10.4236C14.3276 10.5575 14.2731 10.6832 14.1736 10.7778L13.8058 11.1286C13.8033 11.131 13.8008 11.1334 13.7983 11.1358L11.5751 13.2566ZM12.6629 13.6362L14.1982 12.1717L20.6984 17.5804L18.3265 19.8431L12.6629 13.6362ZM19.0178 20.6009L21.492 18.2407L22.2855 18.901L19.7092 21.3587L19.0178 20.6009ZM25.7802 23.8584C25.4412 24.4358 24.868 24.8169 24.2076 24.9041C23.5488 24.9911 22.9015 24.7841 22.4317 24.3362C22.3913 24.2977 22.3527 24.2576 22.3166 24.2169C22.315 24.215 22.3133 24.2131 22.3115 24.2112L20.4005 22.1165L23.0791 19.5613L25.2722 21.3861C25.2739 21.3875 25.2755 21.3889 25.2773 21.3903C25.4414 21.5234 25.5871 21.6833 25.7107 21.866C26.1079 22.4516 26.1358 23.2524 25.7802 23.8584Z" fill="#0A76DB"/>
<path d="M10.0864 5.43192C9.88126 5.23624 9.54874 5.23624 9.34355 5.43192L7.11479 7.55801C6.90965 7.75369 6.90965 8.07099 7.11479 8.26662C7.21738 8.36449 7.3518 8.41339 7.48623 8.41339C7.62066 8.41339 7.75508 8.36444 7.85767 8.26662L10.0864 6.14053C10.2916 5.9449 10.2916 5.62765 10.0864 5.43192Z" fill="#0A76DB"/>
</svg>
