<svg width="51" height="54" viewBox="0 0 51 54" fill="none" xmlns="http://www.w3.org/2000/svg">
<path d="M17.5541 11.011H8.45736C7.61548 11.011 6.93317 11.6933 6.93317 12.5352C6.93317 13.3771 7.61548 14.0594 8.45736 14.0594H17.5541C18.3956 14.0594 19.0783 13.3771 19.0783 12.5352C19.0783 11.6933 18.3956 11.011 17.5541 11.011Z" fill="#D0A144"/>
<path d="M17.5541 17.1077H8.45736C7.61548 17.1077 6.93317 17.79 6.93317 18.6319C6.93317 19.4737 7.61548 20.1561 8.45736 20.1561H17.5541C18.3956 20.1561 19.0783 19.4737 19.0783 18.6319C19.0783 17.79 18.3956 17.1077 17.5541 17.1077Z" fill="#D0A144"/>
<path d="M17.5541 23.2046H8.45736C7.61548 23.2046 6.93317 23.8869 6.93317 24.7288C6.93317 25.5707 7.61548 26.253 8.45736 26.253H17.5541C18.3956 26.253 19.0783 25.5707 19.0783 24.7288C19.0783 23.8869 18.3956 23.2046 17.5541 23.2046Z" fill="#D0A144"/>
<path d="M17.5541 29.3013H8.45736C7.61548 29.3013 6.93317 29.9836 6.93317 30.8255C6.93317 31.6673 7.61548 32.3497 8.45736 32.3497H17.5541C18.3956 32.3497 19.0783 31.6673 19.0783 30.8255C19.0783 29.9836 18.3956 29.3013 17.5541 29.3013Z" fill="#D0A144"/>
<path d="M17.5541 35.4998H8.45736C7.61548 35.4998 6.93317 36.1825 6.93317 37.0239C6.93317 37.8658 7.61548 38.5481 8.45736 38.5481H17.5541C18.3956 38.5481 19.0783 37.8658 19.0783 37.0239C19.0783 36.1825 18.3956 35.4998 17.5541 35.4998Z" fill="#D0A144"/>
<path d="M22.6716 14.0594H31.7683C32.6102 14.0594 33.2925 13.3771 33.2925 12.5352C33.2925 11.6933 32.6102 11.011 31.7683 11.011H22.6716C21.8301 11.011 21.1474 11.6933 21.1474 12.5352C21.1474 13.3771 21.8301 14.0594 22.6716 14.0594Z" fill="#D0A144"/>
<path d="M22.6716 20.1561H31.7683C32.6102 20.1561 33.2925 19.4737 33.2925 18.6319C33.2925 17.79 32.6102 17.1077 31.7683 17.1077H22.6716C21.8301 17.1077 21.1474 17.79 21.1474 18.6319C21.1474 19.4737 21.8301 20.1561 22.6716 20.1561Z" fill="#D0A144"/>
<path d="M28.577 24.7288C28.577 23.8869 27.8947 23.2046 27.0528 23.2046H22.6716C21.8301 23.2046 21.1474 23.8869 21.1474 24.7288C21.1474 25.5707 21.8301 26.253 22.6716 26.253H27.0528C27.8947 26.253 28.577 25.5707 28.577 24.7288Z" fill="#D0A144"/>
<path d="M43.0156 36.1444C42.3591 35.6177 41.4001 35.7229 40.873 36.3794L36.9474 41.2735L34.517 39.5127C33.8355 39.0186 32.8821 39.171 32.3883 39.8525C31.8945 40.5344 32.047 41.4874 32.7285 41.9812L36.3338 44.5934C36.6037 44.7887 36.9165 44.8835 37.2272 44.8835C37.6746 44.8835 38.1168 44.6871 38.4168 44.3128L43.251 38.287C43.7777 37.6305 43.6725 36.6712 43.0156 36.1444Z" fill="#D0A144"/>
<path d="M46.8682 31.4662C44.8828 29.4458 42.3318 28.1725 39.5676 27.7974V7.12672C39.5676 3.74215 36.8137 0.988281 33.4291 0.988281H6.79509C3.41011 0.988281 0.65625 3.74215 0.65625 7.12672V42.4344C0.65625 45.8194 3.41011 48.5732 6.79469 48.5732H28.2163C30.6269 51.4049 34.0928 53.014 37.8426 53.014C44.8225 53.014 50.5009 47.3316 50.5009 40.347C50.5009 37.0033 49.2109 33.8493 46.8682 31.4662ZM3.70463 42.4344V7.12672C3.70463 5.42312 5.09109 4.03666 6.79509 4.03666H33.4291C35.1331 4.03666 36.5192 5.42312 36.5192 7.12672V27.749C30.1589 28.413 25.1842 33.8092 25.1842 40.347C25.1842 42.1589 25.5621 43.9109 26.2869 45.5244H6.79509C5.09109 45.5244 3.70463 44.1384 3.70463 42.4344ZM37.8426 49.9656C34.7985 49.9656 32.0002 48.5681 30.1644 46.1317C28.9006 44.4539 28.2322 42.4538 28.2322 40.347C28.2322 35.0432 32.5436 30.7283 37.8426 30.7283C37.8926 30.7283 37.943 30.7291 37.993 30.7299L38.0164 30.7303C40.546 30.7751 42.9176 31.7952 44.6943 33.6028C46.4729 35.4124 47.4525 37.8078 47.4525 40.347C47.4525 45.6507 43.1415 49.9656 37.8426 49.9656Z" fill="#D0A144"/>
</svg>
