<svg width="53" height="52" viewBox="0 0 53 52" fill="none" xmlns="http://www.w3.org/2000/svg">
<path d="M12.4604 17.7033C12.0643 17.3072 11.4204 17.3072 11.0244 17.7033C10.6273 18.1004 10.6273 18.7433 11.0244 19.1394C11.4205 19.5365 12.0644 19.5365 12.4604 19.1394C12.8574 18.7433 12.8574 18.1004 12.4604 17.7033Z" fill="#D0A144"/>
<path d="M26.2155 45.4727C26.6633 44.8661 26.9053 44.1354 26.9053 43.3671C26.9053 41.4071 25.3108 39.8125 23.3508 39.8125H6.08583C5.13592 39.8125 4.24329 40.1822 3.57227 40.8534C2.90095 41.5245 2.53126 42.4172 2.53126 43.3671C2.53126 44.1541 2.78882 44.8819 3.22341 45.4714C1.60623 46.3217 0.500122 48.0178 0.500122 49.9683V50.9839C0.500122 51.5448 0.954917 51.9995 1.51574 51.9995H27.9209C28.4817 51.9995 28.9365 51.5448 28.9365 50.9839V49.9683C28.9365 48.0187 27.8315 46.3233 26.2155 45.4727ZM5.00846 42.2895C5.29598 42.0019 5.67867 41.8435 6.08583 41.8435H23.3508C24.1908 41.8435 24.8741 42.527 24.8741 43.3669C24.8741 43.7741 24.7157 44.1567 24.428 44.4443C24.1405 44.732 23.7578 44.8903 23.3507 44.8903H6.08583C5.24581 44.8903 4.5625 44.2069 4.5625 43.367C4.5625 42.9598 4.72084 42.5771 5.00846 42.2895ZM2.53126 49.9683C2.53126 48.2884 3.89808 46.9215 5.57802 46.9215H6.08583H23.3508H23.8586C25.5385 46.9215 26.9053 48.2884 26.9053 49.9683H2.53126Z" fill="#D0A144"/>
<path d="M51.5558 42.669C51.2109 42.1345 50.7993 41.6619 50.3325 41.2641L45.587 37.1252C45.55 37.0695 45.5071 37.0167 45.4581 36.9677C45.3756 36.8853 45.2822 36.821 45.1828 36.7729L42.313 34.2699L29.0297 22.6825C29.5735 22.1141 29.8729 21.3708 29.8729 20.5803C29.8729 19.766 29.5559 19.0007 28.9797 18.4247C28.7285 18.1737 28.4429 17.9764 28.1377 17.8318L29.3666 16.6029C29.7101 16.6942 30.063 16.741 30.4162 16.741C31.4563 16.7409 32.4965 16.345 33.2883 15.5532C34.0559 14.7857 34.4786 13.7655 34.4786 12.6805C34.4786 11.5955 34.0559 10.5753 33.2884 9.80783L24.6711 1.19069C23.9036 0.42319 22.8833 0.000488281 21.798 0.000488281C20.7132 0.000488281 19.6932 0.42319 18.9258 1.19069C17.8651 2.25141 17.5159 3.75747 17.8761 5.11251L5.61498 17.3735C5.27617 17.2834 4.92364 17.2359 4.5635 17.2359C3.47801 17.2359 2.45822 17.6583 1.69133 18.4251C0.107366 20.009 0.107366 22.5864 1.69133 24.1704L10.3086 32.7878C11.1006 33.5797 12.1409 33.9757 13.1812 33.9757C14.2216 33.9757 15.262 33.5797 16.054 32.7878C17.1147 31.727 17.4639 30.221 17.1038 28.8659L18.3301 27.6395C18.4775 27.9472 18.6775 28.2312 18.9259 28.4795C19.5014 29.055 20.2664 29.3719 21.0805 29.3719C21.8702 29.3719 22.6132 29.073 23.1825 28.5299L37.3307 44.7853C37.3697 44.8462 37.4152 44.9042 37.4684 44.9574C37.4866 44.9756 37.5059 44.9922 37.5251 45.0086L41.741 49.8525C41.8458 49.9762 41.9578 50.0979 42.0741 50.2142C43.232 51.3717 44.7615 51.9999 46.3672 51.9999C46.6502 51.9999 46.9359 51.9804 47.222 51.9407C49.1343 51.6761 50.787 50.5321 51.7561 48.8017C52.8178 46.9052 52.7388 44.4975 51.5558 42.669ZM20.3622 2.62698C20.746 2.24318 21.256 2.03173 21.7981 2.03173C22.3408 2.03173 22.8512 2.24318 23.2349 2.62698L31.8522 11.2442C32.236 11.628 32.4474 12.1382 32.4474 12.6806C32.4474 13.2231 32.236 13.7332 31.8521 14.117C31.0604 14.9089 29.772 14.9089 28.9803 14.117L20.3627 5.49936C20.3625 5.49916 20.3624 5.49906 20.3622 5.49886C19.5703 4.70708 19.5703 3.41876 20.3622 2.62698ZM14.6177 31.3515C13.8258 32.1435 12.5368 32.1436 11.7449 31.3515L3.12762 22.7342C2.33554 21.9422 2.33554 20.6535 3.12762 19.8614C3.51071 19.4782 4.02076 19.2671 4.5635 19.2671C5.10615 19.2671 5.61589 19.4781 5.99888 19.8609L14.6176 28.4797C15.4096 29.2714 15.4096 30.5598 14.6177 31.3515ZM18.8937 24.2035L16.0539 27.0434L7.43578 18.4253L18.9258 6.93504L27.5439 15.5532L24.6989 18.3983C24.6897 18.407 24.6806 18.4155 24.6709 18.4252L18.9287 24.1674C18.9169 24.1791 18.9054 24.1912 18.8937 24.2035ZM22.5201 26.3222C22.5181 26.3243 22.5161 26.3262 22.5141 26.3282L21.7989 27.0434C21.607 27.2352 21.352 27.3408 21.0804 27.3408C20.809 27.3408 20.5538 27.2352 20.3621 27.0433C20.17 26.8514 20.0643 26.596 20.0643 26.3244C20.0643 26.0585 20.1658 25.8083 20.3499 25.6196L26.1187 19.8508C26.5141 19.4663 27.1533 19.4711 27.5441 19.8614C27.736 20.0533 27.8417 20.3086 27.8417 20.5803C27.8417 20.8518 27.7363 21.1064 27.544 21.2983L26.8329 22.0093C26.828 22.0141 26.8232 22.0189 26.8184 22.0238L22.5201 26.3222ZM24.6232 27.0916L27.5915 24.1233L40.159 35.0854L35.573 39.6714L24.6232 27.0916ZM36.9097 41.2073L41.6932 36.4237L43.2275 37.762L38.2464 42.7432L36.9097 41.2073ZM49.984 47.8094C49.3285 48.9797 48.2204 49.7521 46.9436 49.9288C45.6698 50.1051 44.4183 49.6856 43.5101 48.7778C43.432 48.6998 43.3573 48.6184 43.2876 48.536C43.2843 48.5321 43.2811 48.5283 43.2777 48.5245L39.5829 44.279L44.7617 39.1002L49.0019 42.7987C49.005 42.8016 49.0083 42.8043 49.0116 42.8072C49.329 43.077 49.6106 43.4011 49.8496 43.7714C50.6176 44.9582 50.6715 46.5811 49.984 47.8094Z" fill="#D0A144"/>
<path d="M19.6445 10.5272C19.2478 10.1306 18.6049 10.1306 18.2082 10.5272L13.8992 14.8363C13.5026 15.2329 13.5026 15.8759 13.8992 16.2724C14.0975 16.4708 14.3574 16.5699 14.6173 16.5699C14.8772 16.5699 15.1371 16.4707 15.3355 16.2724L19.6445 11.9634C20.0411 11.5669 20.0411 10.9239 19.6445 10.5272Z" fill="#D0A144"/>
</svg>
