<svg width="42" height="40" viewBox="0 0 42 40" fill="none" xmlns="http://www.w3.org/2000/svg">
<path d="M9.92378 13.5685C9.61304 13.2721 9.1079 13.2721 8.79725 13.5685C8.48572 13.8657 8.48572 14.3468 8.79725 14.6432C9.10798 14.9404 9.61312 14.9404 9.92378 14.6432C10.2352 14.3468 10.2352 13.8657 9.92378 13.5685Z" fill="white"/>
<path d="M22.0252 35.4065C21.4738 34.7217 21.254 33.6545 21.254 32.7753C21.254 31.3086 20.0031 30.1152 18.4655 30.1152H4.92117C4.17596 30.1152 3.4757 30.3919 2.94928 30.8942C2.42263 31.3964 2.13261 32.0645 2.13261 32.7753C2.13261 33.6544 1.91475 34.7202 1.36303 35.4046C0.846614 36.0452 0.539185 36.8466 0.539185 37.7154V38.4755C0.539185 38.8952 0.89597 39.2355 1.33594 39.2355H22.0507C22.4907 39.2355 22.8475 38.8952 22.8475 38.4755V37.7154C22.8475 36.8474 22.5407 36.0468 22.0252 35.4065ZM4.07597 31.9689C4.30153 31.7537 4.60175 31.6352 4.92117 31.6352H18.4655C19.1245 31.6352 19.6605 32.1466 19.6605 32.7752C19.6605 33.08 19.5362 33.3663 19.3106 33.5815C19.085 33.7968 18.7848 33.9152 18.4654 33.9152H4.92117C4.26217 33.9152 3.72612 33.4038 3.72612 32.7752C3.72612 32.4705 3.85033 32.1842 4.07597 31.9689ZM5.80036 37.7154C3.77472 37.7154 2.49715 35.4353 4.52279 35.4353H4.92117H18.4655H18.8639C20.8895 35.4353 19.6119 37.7154 17.5863 37.7154H5.80036Z" fill="white"/>
<path d="M40.5897 32.2446C40.3191 31.8446 39.9963 31.4909 39.63 31.1932L36.0268 28.1953C35.9474 28.1293 35.8808 28.0492 35.8061 27.9779C35.6803 27.8581 35.5225 27.7759 35.389 27.6648L33.3388 25.959L24.2648 18.4082C23.5421 17.8068 23.5795 16.6545 23.5795 15.7143C23.5795 15.1049 23.3309 14.5322 22.8789 14.1011C22.6022 13.8375 22.5202 13.3694 22.7968 13.1056L22.9206 12.9875C23.0835 12.8321 23.3142 12.7761 23.5371 12.8078C23.6924 12.8299 23.849 12.8411 24.0058 12.8411C24.8217 12.841 25.6378 12.5448 26.2589 11.9522C26.8611 11.3779 27.1927 10.6144 27.1927 9.80243C27.1927 8.99047 26.8611 8.227 26.259 7.65264L19.4987 1.20393C18.8966 0.629564 18.0962 0.313232 17.2448 0.313232C16.3938 0.313232 15.5936 0.629564 14.9916 1.20393C14.7916 1.39469 14.6239 1.60469 14.4883 1.82774C13.7214 3.09006 13.5005 4.77565 12.4317 5.79517L5.15229 12.7392C4.77703 13.0972 4.24298 13.2115 3.72436 13.2115C2.87279 13.2115 2.07277 13.5276 1.47115 14.1014C0.228531 15.2868 0.228531 17.2156 1.47115 18.401L8.23135 24.8499C8.85274 25.4425 9.66886 25.7389 10.485 25.7389C11.3012 25.7389 12.1173 25.4425 12.7387 24.8499C13.4626 24.1592 13.7641 23.2163 13.6442 22.3151C13.611 22.0657 13.6759 21.8064 13.858 21.6328L13.9547 21.5405C14.2379 21.2703 14.7083 21.3556 14.9916 21.6257C15.4431 22.0564 16.0433 22.2936 16.682 22.2936C17.6799 22.2936 18.8757 22.2606 19.5484 22.9978L29.3166 33.7039C29.3922 33.7867 29.457 33.8797 29.5382 33.9571C29.5665 33.9841 29.5959 34.0099 29.6222 34.0388L32.8901 37.6204C32.9723 37.713 33.0602 37.804 33.1514 37.8911C34.0598 38.7573 35.2596 39.2274 36.5193 39.2274C36.7413 39.2274 36.9654 39.2128 37.1899 39.1831C38.6901 38.9851 39.9867 38.129 40.7469 36.834C41.5798 35.4147 41.5178 33.6129 40.5897 32.2446ZM16.1184 2.27879C16.4195 1.99157 16.8196 1.83333 17.2449 1.83333C17.6706 1.83333 18.071 1.99157 18.372 2.27879L25.1323 8.72757C25.4334 9.01479 25.5992 9.39656 25.5992 9.80251C25.5992 10.2084 25.4334 10.5902 25.1322 10.8774C24.5112 11.4701 23.5004 11.4701 22.8793 10.8774L16.1188 4.42836C16.1186 4.42821 16.1186 4.42813 16.1184 4.42798C15.4972 3.83545 15.4972 2.87133 16.1184 2.27879ZM11.6119 23.775C10.9906 24.3677 9.97943 24.3678 9.35812 23.775L2.59791 17.3262C1.97653 16.7335 1.97653 15.7691 2.59791 15.1763C2.89845 14.8895 3.29858 14.7316 3.72436 14.7316C4.15007 14.7316 4.54996 14.8894 4.85041 15.176L11.6118 21.6259C12.2331 22.2183 12.2331 23.1825 11.6119 23.775ZM14.9664 18.4258C13.7194 19.6154 11.7578 19.6154 10.5107 18.4258L9.01172 16.9958C7.35969 15.4199 7.35968 12.7832 9.01169 11.2073L12.2306 8.13661C13.776 6.66232 16.2071 6.66232 17.7526 8.1366L19.5205 9.82313C20.7358 10.9824 20.7358 12.922 19.5205 14.0813C19.5133 14.0879 19.5062 14.0943 19.4986 14.1015L14.9939 18.3987C14.9846 18.4075 14.9755 18.4166 14.9664 18.4258ZM17.8113 20.0113C17.8097 20.0128 17.8082 20.0143 17.8066 20.0158L17.2455 20.551C17.095 20.6945 16.8949 20.7736 16.6819 20.7736C16.4689 20.7736 16.2688 20.6945 16.1183 20.5509C15.9677 20.4073 15.8847 20.2162 15.8847 20.0129C15.8847 19.8139 15.9643 19.6267 16.1088 19.4855L20.6344 15.1684C20.9446 14.8806 21.4461 14.8842 21.7526 15.1763C21.9032 15.3199 21.9861 15.511 21.9861 15.7143C21.9861 15.9175 21.9034 16.108 21.7525 16.2516L21.1947 16.7837C21.1909 16.7873 21.187 16.7909 21.1833 16.7946L17.8113 20.0113ZM20.5962 21.8309C19.9653 21.1395 20.0024 20.0708 20.6796 19.4248C21.3123 18.8212 22.297 18.7878 22.9692 19.3471L29.6491 24.9053C30.7144 25.7917 30.7693 27.4085 29.7665 28.3651C28.8254 29.2628 27.3302 29.211 26.4535 28.2502L20.5962 21.8309ZM29.6125 31.7126C29.3276 31.4002 29.3443 30.9175 29.6503 30.6256L32.351 28.0492C32.6368 27.7766 33.0817 27.7615 33.3853 28.0141C33.7427 28.3115 33.7611 28.8539 33.4247 29.1747L30.7239 31.7511C30.4082 32.0523 29.9066 32.0349 29.6125 31.7126ZM39.3567 36.0914C38.8424 36.9672 37.9731 37.5452 36.9715 37.6775C35.9722 37.8094 34.9904 37.4955 34.2779 36.8161C34.2167 36.7578 34.158 36.6969 34.1034 36.6352C34.1008 36.6323 34.0983 36.6294 34.0956 36.6266L33.1771 35.6197C32.0765 34.4134 32.1412 32.5488 33.3228 31.4216C34.4267 30.3685 36.1448 30.3102 37.3176 31.286L38.5862 32.3416C38.5887 32.3438 38.5912 32.3458 38.5939 32.348C38.8428 32.5499 39.0638 32.7924 39.2513 33.0695C39.8538 33.9577 39.896 35.1722 39.3567 36.0914Z" fill="white"/>
<path d="M15.5555 8.18549C15.2443 7.88869 14.74 7.88869 14.4288 8.18549L11.0483 11.4102C10.7372 11.707 10.7372 12.1883 11.0483 12.485C11.2039 12.6334 11.4078 12.7076 11.6117 12.7076C11.8156 12.7076 12.0195 12.6334 12.1751 12.485L15.5555 9.26027C15.8667 8.96355 15.8667 8.48236 15.5555 8.18549Z" fill="white"/>
</svg>
