<svg width="49" height="41" viewBox="0 0 49 41" fill="none" xmlns="http://www.w3.org/2000/svg">
<path d="M26.5964 36.3635H22.5064C22.3242 36.3635 22.1494 36.2916 22.0205 36.1636C21.8917 36.0356 21.8193 35.862 21.8193 35.681V2.71387C21.8193 1.99411 22.1071 1.30382 22.6195 0.794874C23.1319 0.285924 23.8268 0 24.5514 0C25.276 0 25.971 0.285924 26.4833 0.794874C26.9957 1.30382 27.2836 1.99411 27.2836 2.71387V35.6816C27.2834 35.8625 27.2109 36.036 27.0821 36.1638C26.9532 36.2917 26.7785 36.3635 26.5964 36.3635ZM23.1936 34.9984H25.9093V2.71387C25.9093 2.35616 25.7662 2.0131 25.5116 1.76016C25.2569 1.50722 24.9115 1.36513 24.5514 1.36513C24.1913 1.36513 23.8459 1.50722 23.5913 1.76016C23.3367 2.0131 23.1936 2.35616 23.1936 2.71387V34.9984Z" fill="white"/>
<path d="M7.99162 9.15082H5.6326C5.0729 9.14084 4.53953 8.91299 4.14726 8.5163C3.755 8.11961 3.53522 7.5858 3.53522 7.02975C3.53522 6.47371 3.755 5.9399 4.14726 5.54321C4.53953 5.14652 5.0729 4.91866 5.6326 4.90869H7.65697C7.83922 4.90869 8.014 4.9806 8.14287 5.10861C8.27173 5.23661 8.34413 5.41023 8.34413 5.59125C8.34413 5.77228 8.27173 5.94589 8.14287 6.0739C8.014 6.2019 7.83922 6.27382 7.65697 6.27382H5.6326C5.43472 6.27972 5.24694 6.36196 5.10907 6.50308C4.97121 6.6442 4.8941 6.83311 4.8941 7.02975C4.8941 7.2264 4.97121 7.41531 5.10907 7.55643C5.24694 7.69755 5.43472 7.77978 5.6326 7.78569H7.99162C8.17386 7.78569 8.34864 7.85761 8.47751 7.98561C8.60638 8.11362 8.67878 8.28723 8.67878 8.46825C8.67878 8.64928 8.60638 8.82289 8.47751 8.9509C8.34864 9.07891 8.17386 9.15082 7.99162 9.15082Z" fill="white"/>
<path d="M22.5083 9.15082H12.1494C11.9671 9.15082 11.7924 9.07891 11.6635 8.9509C11.5346 8.82289 11.4622 8.64928 11.4622 8.46825C11.4622 8.28723 11.5346 8.11362 11.6635 7.98561C11.7924 7.85761 11.9671 7.78569 12.1494 7.78569H21.8211V6.27382H12.4833C12.3011 6.27382 12.1263 6.2019 11.9974 6.0739C11.8686 5.94589 11.7962 5.77228 11.7962 5.59125C11.7962 5.41023 11.8686 5.23661 11.9974 5.10861C12.1263 4.9806 12.3011 4.90869 12.4833 4.90869H22.5083C22.6905 4.90869 22.8653 4.9806 22.9942 5.10861C23.1231 5.23661 23.1955 5.41023 23.1955 5.59125V8.46825C23.1955 8.64928 23.1231 8.82289 22.9942 8.9509C22.8653 9.07891 22.6905 9.15082 22.5083 9.15082Z" fill="white"/>
<path d="M36.8055 9.15082H26.5963C26.4141 9.15082 26.2393 9.07891 26.1104 8.9509C25.9816 8.82289 25.9092 8.64928 25.9092 8.46825V5.59125C25.9092 5.41023 25.9816 5.23661 26.1104 5.10861C26.2393 4.9806 26.4141 4.90869 26.5963 4.90869H36.4715C36.6538 4.90869 36.8285 4.9806 36.9574 5.10861C37.0863 5.23661 37.1587 5.41023 37.1587 5.59125C37.1587 5.77228 37.0863 5.94589 36.9574 6.0739C36.8285 6.2019 36.6538 6.27382 36.4715 6.27382H27.2835V7.78569H36.8055C36.9877 7.78569 37.1625 7.85761 37.2914 7.98561C37.4202 8.11362 37.4926 8.28723 37.4926 8.46825C37.4926 8.64928 37.4202 8.82289 37.2914 8.9509C37.1625 9.07891 36.9877 9.15082 36.8055 9.15082Z" fill="white"/>
<path d="M43.4634 9.15082H41.1113C40.929 9.15082 40.7543 9.07891 40.6254 8.9509C40.4965 8.82289 40.4241 8.64928 40.4241 8.46825C40.4241 8.28723 40.4965 8.11362 40.6254 7.98561C40.7543 7.85761 40.929 7.78569 41.1113 7.78569H43.4634C43.6613 7.77978 43.8491 7.69755 43.987 7.55643C44.1248 7.41531 44.2019 7.2264 44.2019 7.02975C44.2019 6.83311 44.1248 6.6442 43.987 6.50308C43.8491 6.36196 43.6613 6.27972 43.4634 6.27382H41.4501C41.2678 6.27382 41.093 6.2019 40.9642 6.0739C40.8353 5.94589 40.7629 5.77228 40.7629 5.59125C40.7629 5.41023 40.8353 5.23661 40.9642 5.10861C41.093 4.9806 41.2678 4.90869 41.4501 4.90869H43.4634C44.0231 4.91866 44.5565 5.14652 44.9488 5.54321C45.341 5.9399 45.5608 6.47371 45.5608 7.02975C45.5608 7.5858 45.341 8.11961 44.9488 8.5163C44.5565 8.91299 44.0231 9.14084 43.4634 9.15082Z" fill="white"/>
<path d="M33.2509 40.7598H15.8452C15.7409 40.7597 15.638 40.7361 15.5442 40.6907C15.4505 40.6452 15.3684 40.5792 15.3041 40.4976C15.2399 40.4159 15.1952 40.3209 15.1735 40.2195C15.1517 40.1182 15.1535 40.0133 15.1786 39.9127C15.462 38.5629 16.1916 37.3459 17.2515 36.4553C18.3114 35.5648 19.6406 35.052 21.0277 34.9983H28.0684C29.4555 35.052 30.7847 35.5648 31.8446 36.4553C32.9045 37.3459 33.6341 38.5629 33.9175 39.9127C33.9426 40.0133 33.9444 40.1182 33.9226 40.2195C33.9009 40.3209 33.8562 40.4159 33.792 40.4976C33.7277 40.5792 33.6456 40.6452 33.5519 40.6907C33.4581 40.7361 33.3552 40.7597 33.2509 40.7598ZM16.7955 39.3947H32.3006C31.9735 38.5322 31.3974 37.7849 30.6445 37.2463C29.8917 36.7076 28.9955 36.4017 28.0684 36.3668H21.0277C20.1006 36.4017 19.2044 36.7076 18.4516 37.2463C17.6987 37.7849 17.1226 38.5322 16.7955 39.3947Z" fill="white"/>
<path d="M35.1139 40.757H13.9865C13.8043 40.757 13.6295 40.6851 13.5006 40.5571C13.3718 40.429 13.2994 40.2554 13.2994 40.0744C13.2994 39.8934 13.3718 39.7198 13.5006 39.5918C13.6295 39.4638 13.8043 39.3918 13.9865 39.3918H35.1139C35.2961 39.3918 35.4709 39.4638 35.5998 39.5918C35.7287 39.7198 35.8011 39.8934 35.8011 40.0744C35.8011 40.2554 35.7287 40.429 35.5998 40.5571C35.4709 40.6851 35.2961 40.757 35.1139 40.757Z" fill="white"/>
<path d="M47.9162 26.2659H30.1593C30.0443 26.2659 29.9311 26.2373 29.8301 26.1827C29.7291 26.128 29.6435 26.049 29.5812 25.953C29.5189 25.8569 29.4819 25.7469 29.4735 25.6329C29.4651 25.5189 29.4857 25.4047 29.5333 25.3007L37.0783 8.80046C37.1155 8.7186 37.1685 8.64483 37.2344 8.58337C37.3004 8.52191 37.3778 8.47398 37.4624 8.44231C37.547 8.41063 37.637 8.39585 37.7274 8.39881C37.8177 8.40176 37.9066 8.4224 37.9889 8.45952C38.0712 8.49665 38.1453 8.54955 38.207 8.61518C38.2687 8.68081 38.3168 8.75789 38.3484 8.842C38.3801 8.92611 38.3947 9.01559 38.3915 9.10533C38.3883 9.19506 38.3673 9.28329 38.3297 9.36494L31.2258 24.9007H46.847L39.7493 9.36494C39.7121 9.28328 39.6913 9.19513 39.6884 9.10552C39.6854 9.01592 39.7002 8.9266 39.732 8.84269C39.7638 8.75877 39.8119 8.68189 39.8736 8.61644C39.9353 8.55099 40.0093 8.49825 40.0915 8.46123C40.1737 8.42421 40.2625 8.40364 40.3527 8.40068C40.4429 8.39773 40.5328 8.41246 40.6173 8.44402C40.7018 8.47559 40.7792 8.52337 40.8451 8.58464C40.911 8.64592 40.9641 8.71949 41.0013 8.80115L48.5388 25.3014C48.5861 25.4051 48.6066 25.519 48.5983 25.6325C48.5901 25.7461 48.5533 25.8559 48.4914 25.9517C48.4295 26.0476 48.3445 26.1266 48.244 26.1814C48.1436 26.2363 48.0309 26.2653 47.9162 26.2659Z" fill="white"/>
<path d="M39.1056 34.9744H38.9626C33.4606 34.9744 29.4668 31.0264 29.4668 25.5864C29.4668 25.4053 29.5392 25.2317 29.6681 25.1037C29.7969 24.9757 29.9717 24.9038 30.154 24.9038H47.9136C48.0958 24.9038 48.2706 24.9757 48.3995 25.1037C48.5283 25.2317 48.6007 25.4053 48.6007 25.5864C48.6007 31.0298 44.607 34.9744 39.1056 34.9744ZM30.8652 26.2689C31.1716 30.6251 34.4143 33.6092 38.9626 33.6092H39.1056C43.6532 33.6092 46.8966 30.6251 47.2023 26.2689H30.8652Z" fill="white"/>
<path d="M39.0351 10.1277C38.3669 10.1278 37.7137 9.93114 37.1581 9.56249C36.6024 9.19383 36.1693 8.66979 35.9136 8.05663C35.6578 7.44347 35.5909 6.76873 35.7212 6.11777C35.8515 5.46681 36.1733 4.86886 36.6457 4.39955C37.1182 3.93023 37.7202 3.61064 38.3755 3.48119C39.0309 3.35174 39.7101 3.41825 40.3274 3.6723C40.9447 3.92635 41.4723 4.35654 41.8434 4.90845C42.2146 5.46036 42.4126 6.1092 42.4124 6.77291C42.4113 7.66232 42.0552 8.515 41.422 9.14391C40.7889 9.77282 39.9305 10.1266 39.0351 10.1277ZM39.0351 4.78256C38.6387 4.78242 38.2513 4.89904 37.9217 5.11766C37.592 5.33628 37.3351 5.64708 37.1834 6.01076C37.0316 6.37444 36.9918 6.77465 37.069 7.16079C37.1463 7.54692 37.3371 7.90163 37.6173 8.18006C37.8975 8.45848 38.2545 8.64811 38.6432 8.72497C39.0319 8.80182 39.4348 8.76244 39.801 8.61182C40.1672 8.46119 40.4802 8.20609 40.7004 7.87876C40.9206 7.55143 41.0381 7.16659 41.0381 6.77291C41.0376 6.24532 40.8264 5.73948 40.4509 5.36636C40.0754 4.99323 39.5662 4.78328 39.0351 4.78256Z" fill="white"/>
<path d="M18.9432 26.2668H1.18697C1.072 26.2668 0.958868 26.2381 0.857948 26.1834C0.757028 26.1286 0.671543 26.0497 0.609322 25.9536C0.547101 25.8576 0.510133 25.7476 0.501805 25.6337C0.493477 25.5198 0.514055 25.4056 0.561654 25.3017L8.10803 8.8014C8.18339 8.63649 8.32162 8.50806 8.4923 8.44438C8.66299 8.3807 8.85215 8.38698 9.01817 8.46183C9.1842 8.53668 9.31349 8.67398 9.3776 8.84353C9.44171 9.01307 9.43539 9.20097 9.36003 9.36588L2.25619 24.9017H17.8774L10.7797 9.36588C10.7402 9.28397 10.7176 9.19505 10.7132 9.10434C10.7088 9.01364 10.7226 8.92296 10.7539 8.83763C10.7852 8.7523 10.8333 8.67403 10.8954 8.60741C10.9575 8.54079 11.0324 8.48714 11.1157 8.44963C11.1989 8.41212 11.2889 8.39148 11.3803 8.38894C11.4717 8.3864 11.5627 8.40199 11.6479 8.43482C11.7332 8.46764 11.8109 8.51703 11.8767 8.5801C11.9425 8.64316 11.995 8.71863 12.031 8.80209L19.5692 25.3023C19.6166 25.4063 19.6371 25.5205 19.6286 25.6343C19.6202 25.7482 19.5831 25.8581 19.5209 25.9541C19.4586 26.05 19.3731 26.129 19.2721 26.1836C19.1712 26.2382 19.0581 26.2668 18.9432 26.2668Z" fill="white"/>
<path d="M10.1381 34.9744H9.99516C4.49377 34.9744 0.5 31.0298 0.5 25.5864C0.5 25.4053 0.572397 25.2317 0.701264 25.1037C0.830132 24.9757 1.00491 24.9038 1.18716 24.9038H18.9468C19.129 24.9038 19.3038 24.9757 19.4327 25.1037C19.5615 25.2317 19.6339 25.4053 19.6339 25.5864C19.6339 31.0298 15.6402 34.9744 10.1381 34.9744ZM1.89837 26.2689C2.20415 30.6251 5.44754 33.6092 9.99516 33.6092H10.1381C14.6864 33.6092 17.9291 30.6251 18.2356 26.2689H1.89837Z" fill="white"/>
<path d="M10.0675 10.1277C9.39938 10.1277 8.74624 9.93089 8.1907 9.56215C7.63516 9.19342 7.20219 8.66933 6.94653 8.05615C6.69087 7.44298 6.62401 6.76827 6.75441 6.11735C6.88481 5.46644 7.20661 4.86855 7.67911 4.3993C8.15161 3.93006 8.75359 3.61054 9.40892 3.48114C10.0642 3.35175 10.7435 3.41829 11.3607 3.67237C11.978 3.92644 12.5055 4.35662 12.8766 4.90852C13.2477 5.46041 13.4457 6.10923 13.4456 6.77291C13.4445 7.66244 13.0882 8.51522 12.4549 9.14415C11.8216 9.77308 10.9631 10.1268 10.0675 10.1277ZM10.0675 4.78256C9.67122 4.78256 9.28382 4.89929 8.9543 5.11799C8.62479 5.33669 8.36796 5.64754 8.2163 6.01123C8.06464 6.37492 8.02496 6.77512 8.10227 7.16121C8.17959 7.5473 8.37043 7.90194 8.65066 8.1803C8.93089 8.45866 9.28792 8.64822 9.67661 8.72502C10.0653 8.80181 10.4682 8.7624 10.8343 8.61175C11.2005 8.46111 11.5134 8.206 11.7336 7.87869C11.9538 7.55138 12.0713 7.16656 12.0713 6.77291C12.0707 6.2452 11.8595 5.73926 11.4838 5.36612C11.1081 4.99297 10.5988 4.7831 10.0675 4.78256Z" fill="white"/>
</svg>
