<svg width="39" height="37" viewBox="0 0 39 37" fill="none" xmlns="http://www.w3.org/2000/svg">
<path d="M19.4887 17.4078C22.9297 17.4078 25.6061 14.6235 25.6061 11.2064C25.6061 7.78933 22.8023 5.13159 19.3612 5.13159C15.9201 5.13159 13.2437 7.91589 13.2437 11.2064C13.2437 14.6235 16.0476 17.4078 19.4887 17.4078ZM19.3612 7.66277C19.4886 7.66277 19.4886 7.66277 19.3612 7.66277C21.4004 7.66277 23.0572 9.30804 23.0572 11.333C23.0572 13.3579 21.4004 14.8766 19.3612 14.8766C17.322 14.8766 15.7927 13.2314 15.7927 11.333C15.7927 9.30804 17.4495 7.66277 19.3612 7.66277Z" fill="white"/>
<path d="M38.3518 16.6457C35.9303 14.4942 32.7441 13.3551 29.4305 13.4817H28.4109C28.156 14.4942 27.7737 15.3801 27.2639 16.1394C28.0286 16.0129 28.6658 16.0129 29.4305 16.0129C31.852 15.8863 34.2735 16.6457 36.1852 18.0378V27.1501H38.7341V17.0253L38.3518 16.6457Z" fill="white"/>
<path d="M26.4982 5.3822C27.1355 3.86349 28.9197 3.10414 30.5766 3.73693C32.1059 4.36973 32.8706 6.14155 32.2334 7.78682C31.7236 8.92585 30.5766 9.6852 29.4295 9.6852C29.1746 9.6852 28.7923 9.6852 28.5374 9.55865C28.6648 10.1914 28.6648 10.8242 28.6648 11.3305V12.0898C28.9197 12.0898 29.1746 12.2164 29.4295 12.2164C32.6157 12.2164 35.1647 9.6852 35.1647 6.64779C35.1647 3.48382 32.6157 0.952637 29.557 0.952637C27.5178 0.952637 25.7336 1.96511 24.714 3.73693C25.3512 4.11661 25.9885 4.62285 26.4982 5.3822Z" fill="white"/>
<path d="M11.9702 16.2676C11.4604 15.5083 11.0781 14.6224 10.8232 13.6099H9.80364C6.49001 13.4833 3.30384 14.6224 0.882341 16.6473L0.5 17.027V27.1517H3.04894V18.0394C5.08809 16.6473 7.38214 15.8879 9.80364 16.0145C10.5683 16.0145 11.333 16.1411 11.9702 16.2676Z" fill="white"/>
<path d="M9.80431 12.0909C10.0592 12.0909 10.3141 12.0909 10.569 11.9643V11.205C10.569 10.5722 10.569 9.93939 10.6964 9.43316C10.4415 9.55972 10.0592 9.55972 9.80431 9.55972C8.1475 9.55972 6.74558 8.16757 6.74558 6.5223C6.74558 4.87704 8.1475 3.48489 9.80431 3.48489C11.0788 3.48489 12.2258 4.24424 12.7356 5.38327C13.2454 4.75048 14.0101 4.11768 14.6473 3.61145C12.9905 0.95371 9.54942 0.0677969 6.87303 1.71306C4.19664 3.35833 3.30451 6.77542 4.96132 9.43316C5.9809 11.0784 7.76516 12.0909 9.80431 12.0909Z" fill="white"/>
<path d="M29.9393 24.2405L29.6844 23.8608C27.1355 21.0765 23.5669 19.4313 19.7435 19.5578C15.9201 19.4313 12.2242 21.0765 9.67521 23.8608L9.42032 24.2405V33.859C9.42032 34.998 10.3124 36.0105 11.5869 36.0105H27.9001C29.0472 36.0105 30.0667 34.998 30.0667 33.859V24.2405H29.9393ZM27.3904 33.4793H11.9693V25.1264C14.0084 23.1015 16.8123 22.089 19.7435 22.089C22.5474 21.9625 25.3512 23.1015 27.3904 25.1264V33.4793Z" fill="white"/>
</svg>
