<svg width="52" height="48" viewBox="0 0 52 48" fill="none" xmlns="http://www.w3.org/2000/svg">
<path d="M25.8293 22.4467C30.4195 22.4467 33.9896 18.7326 33.9896 14.1745C33.9896 9.61629 30.2495 6.07104 25.6593 6.07104C21.0691 6.07104 17.499 9.78511 17.499 14.1745C17.499 18.7326 21.2392 22.4467 25.8293 22.4467ZM25.6593 9.44747C25.8293 9.44747 25.8293 9.44747 25.6593 9.44747C28.3794 9.44747 30.5895 11.6421 30.5895 14.3433C30.5895 17.0444 28.3794 19.0703 25.6593 19.0703C22.9392 19.0703 20.8991 16.8756 20.8991 14.3433C20.8991 11.6421 23.1092 9.44747 25.6593 9.44747Z" fill="#D0A144"/>
<path d="M50.99 21.4317C47.7599 18.5618 43.5097 17.0424 39.0896 17.2112H37.7295C37.3895 18.5618 36.8795 19.7435 36.1995 20.7564C37.2195 20.5876 38.0695 20.5876 39.0896 20.5876C42.3197 20.4188 45.5498 21.4317 48.0999 23.2887V35.4439H51.5V21.9382L50.99 21.4317Z" fill="#D0A144"/>
<path d="M35.1806 6.4063C36.0306 4.38044 38.4107 3.36752 40.6208 4.21162C42.6609 5.05573 43.6809 7.41922 42.8309 9.6139C42.1509 11.1333 40.6208 12.1462 39.0908 12.1462C38.7507 12.1462 38.2407 12.1462 37.9007 11.9774C38.0707 12.8215 38.0707 13.6656 38.0707 14.3409V15.3538C38.4107 15.3538 38.7507 15.5226 39.0908 15.5226C43.3409 15.5226 46.741 12.1462 46.741 8.09451C46.741 3.87398 43.3409 0.497559 39.2608 0.497559C36.5407 0.497559 34.1606 1.84813 32.8005 4.21162C33.6506 4.71809 34.5006 5.39337 35.1806 6.4063Z" fill="#D0A144"/>
<path d="M15.7998 20.9266C15.1198 19.9137 14.6098 18.7319 14.2697 17.3814H12.9097C8.48954 17.2126 4.2394 18.7319 1.00928 21.4331L0.499268 21.9395V35.4452H3.89938V23.2901C6.61948 21.4331 9.67958 20.4202 12.9097 20.589C13.9297 20.589 14.9498 20.7578 15.7998 20.9266Z" fill="#D0A144"/>
<path d="M12.9096 15.3561C13.2496 15.3561 13.5896 15.3561 13.9296 15.1873V14.1744C13.9296 13.3302 13.9296 12.4861 14.0996 11.8109C13.7596 11.9797 13.2496 11.9797 12.9096 11.9797C10.6995 11.9797 8.82946 10.1226 8.82946 7.92797C8.82946 5.7333 10.6995 3.87627 12.9096 3.87627C14.6097 3.87627 16.1397 4.88919 16.8197 6.40858C17.4998 5.56448 18.5198 4.72037 19.3698 4.04509C17.1597 0.499845 12.5696 -0.681902 8.99946 1.51277C5.42934 3.70745 4.2393 8.26562 6.44938 11.8109C7.80942 14.0055 10.1895 15.3561 12.9096 15.3561Z" fill="#D0A144"/>
<path d="M39.7702 31.5638L39.4302 31.0573C36.0301 27.3433 31.2699 25.1486 26.1698 25.3174C21.0696 25.1486 16.1394 27.3433 12.7393 31.0573L12.3993 31.5638V44.3942C12.3993 45.9136 13.5893 47.2642 15.2894 47.2642H37.0501C38.5802 47.2642 39.9402 45.9136 39.9402 44.3942V31.5638H39.7702ZM36.3701 43.8878H15.7994V32.7456C18.5195 30.0444 22.2596 28.6939 26.1698 28.6939C29.9099 28.525 33.65 30.0444 36.3701 32.7456V43.8878Z" fill="#D0A144"/>
</svg>
